<svg width="109" height="109" viewBox="0 0 109 109" fill="none" xmlns="http://www.w3.org/2000/svg">
<circle cx="54" cy="55" r="37" fill="#B8DF46"/>
<path d="M50.6679 11.5387C37.2345 12.7947 24.823 20.5652 17.8189 32.0613C11.1554 43.0252 9.66521 56.2244 13.7527 68.3379C17.0951 78.1947 23.9076 86.5826 32.8916 91.8623C42.3439 97.44 54.1593 99.1644 64.8252 96.5672C79.2166 93.0545 90.7552 82.5164 95.5666 68.4869C102.592 48.0068 93.2461 25.4191 73.7666 15.8603C66.4431 12.2625 58.5875 10.7935 50.6679 11.5387ZM58.2894 18.3299C77.1515 20.3736 91.0959 35.8082 91.1172 54.649C91.1384 73.6601 76.1509 89.6908 57.2037 90.883C38.6396 92.0539 22.609 79.7488 18.9047 61.5041C18.4789 59.3965 18.415 58.481 18.415 54.3935C18.4363 49.1564 18.7131 47.3043 20.1394 43.0039C25.4404 26.9945 41.6627 16.499 58.2894 18.3299Z" fill="#AA725A"/>
<path d="M53.1162 30.1027C51.5408 30.8266 50.8809 32.2316 50.8809 34.8076C50.8809 36.8727 51.1576 37.7242 52.1582 38.5971C53.9039 40.1937 56.5225 39.7467 57.5869 37.6604C58.034 36.8088 58.034 32.5723 57.5869 31.7207C56.7992 30.2092 54.6064 29.4002 53.1162 30.1027Z" fill="black"/>
<path d="M37.5538 36.5959C36.17 37.4475 35.4674 39.2357 35.9571 40.726C36.319 41.7904 39.2569 44.5793 40.4065 44.9412C41.9393 45.3883 43.6637 44.6219 44.3663 43.1316C44.7708 42.3014 44.8133 40.8537 44.4727 40.1725C44.1321 39.4912 41.5135 36.8514 40.8323 36.4894C40.002 36.0637 38.3415 36.1062 37.5538 36.5959Z" fill="black"/>
<path d="M68.0186 36.532C67.316 36.8939 65.5491 38.5332 64.8891 39.4486C62.9731 42.1098 65.5065 45.8566 68.6147 44.9412C69.892 44.558 72.6809 41.7478 73.0002 40.5131C73.5963 38.2777 72.0209 36.1914 69.7217 36.1914C69.1469 36.1914 68.3805 36.3404 68.0186 36.532Z" fill="black"/>
<path d="M31.2736 51.7963C30.1453 52.5627 29.5918 53.542 29.5918 54.8193C29.5918 56.2244 30.2092 57.1824 31.5078 57.8637C32.3594 58.3107 32.7 58.3533 34.7225 58.2895C36.8088 58.2256 37.043 58.183 37.7455 57.6295C38.7674 56.8418 39.257 55.9051 39.2357 54.6703C39.2145 53.4143 38.6184 52.3924 37.5113 51.775C36.7875 51.3705 36.3404 51.3066 34.3393 51.3066C32.2529 51.3066 31.9123 51.3705 31.2736 51.7963Z" fill="black"/>
<path d="M71.1906 51.6047C69.4449 52.3711 68.7211 54.649 69.6578 56.3947C70.4668 57.9063 71.4887 58.332 74.2988 58.332C76.2787 58.332 76.7045 58.2682 77.5135 57.8424C78.8334 57.1398 79.4508 56.0115 79.3443 54.5426C79.2592 53.3504 78.8547 52.6053 77.8328 51.8602C77.3219 51.477 76.8961 51.4131 74.5543 51.3492C72.5957 51.3279 71.659 51.3918 71.1906 51.6047Z" fill="black"/>
<path d="M40.4917 64.3142C39.5762 64.591 36.7661 67.2734 36.2126 68.423C35.6378 69.5726 35.659 70.3603 36.2551 71.5312C37.0428 73.1066 38.9376 73.8517 40.5768 73.2344C41.471 72.8937 44.2811 70.041 44.7495 68.9978C45.5585 67.2309 44.7708 65.3361 42.8973 64.4846C41.9606 64.0588 41.5348 64.0162 40.4917 64.3142Z" fill="black"/>
<path d="M66.3153 64.3142C64.3993 64.9103 63.3561 67.167 64.1651 69.0404C64.3142 69.4236 65.2509 70.5094 66.2515 71.4674C68.1675 73.3195 68.8487 73.6389 70.3815 73.3621C71.4034 73.1492 72.7446 71.9144 73.0214 70.8713C73.4259 69.4023 73.0001 68.4869 70.9776 66.4006C68.8274 64.2078 67.9546 63.8033 66.3153 64.3142Z" fill="black"/>
<path d="M53.3292 69.7217C52.286 70.1049 51.4132 71.0416 51.1151 72.106C50.8171 73.1705 50.8171 76.0871 51.1151 77.1728C51.6048 78.876 53.606 80.0894 55.2452 79.6424C56.2884 79.3656 57.1612 78.6844 57.5657 77.8328C58.0554 76.7896 58.0554 72.4254 57.5444 71.3822C56.8632 69.9133 54.9046 69.1469 53.3292 69.7217Z" fill="black"/>
<circle cx="55" cy="54" r="10" fill="#FEF5C6"/>
</svg>
